<svg xmlns="http://www.w3.org/2000/svg" viewBox="0 0 1000 1000">
  <defs>
    <style>
      .a, .b, .c, .d {
        fill: #fff;
      }

      .b {
        fill-rule: evenodd;
      }

      .c {
        font-size: 208.51px;
      }

      .c, .d {
        font-family: Rockwell;
      }

      .d {
        font-size: 131.36px;
      }
    </style>
  </defs>
  <g>
    <path class="a" d="M592.7,211.7a5,5,0,0,1,6.6-2.8,5.1,5.1,0,0,1,2.9,6.6l-21.5,53.3a5,5,0,0,1-6.6,2.8,5.1,5.1,0,0,1-2.8-6.6Zm104.5,65a5.1,5.1,0,0,1,7.3,7l-39.7,41.6a5.1,5.1,0,0,1-7.4-7ZM769.9,376a5.1,5.1,0,0,1,6.7,2.5,5.2,5.2,0,0,1-2.5,6.8L721.7,409a5.1,5.1,0,0,1-4.2-9.3Zm30.5,119.2a5,5,0,0,1,5.3,4.8,5.1,5.1,0,0,1-4.9,5.3l-57.4,2.6a5.1,5.1,0,0,1-.4-10.2ZM351.1,215.5a5.1,5.1,0,0,1,9.5-3.8L382,265a5.1,5.1,0,0,1-9.5,3.8ZM248.8,283.7a5,5,0,0,1,.1-7.1,5.1,5.1,0,0,1,7.2.1l39.7,41.6a5,5,0,0,1-.1,7.1,5.1,5.1,0,0,1-7.2-.1ZM179.2,385.3a5.1,5.1,0,0,1-2.5-6.8,5,5,0,0,1,6.7-2.5l52.3,23.7a5.1,5.1,0,1,1-4.1,9.3Zm89.5,163.9-16.9,2.5L204,558.4a5,5,0,1,1-1.4-10l47.7-6.8,31.3-4.5ZM748.3,548l2.4.4a5,5,0,0,1,4.3,5.7,5.1,5.1,0,0,1-4.9,4.4c-.3-1.5-.5-3.1-.8-4.6S748.6,550,748.3,548Zm-32.9-97.2,28.2-6.9a5,5,0,1,1,2.4,9.8l-26.2,6.5C718.4,457,716.9,453.9,715.4,450.8ZM665,373.2l33-23.7a5.1,5.1,0,0,1,6,8.3l-32.8,23.5C669.2,378.5,667.1,375.8,665,373.2Zm-61.6-67.1,17.2-27.2a5.1,5.1,0,0,1,7-1.5,5,5,0,0,1,1.6,7l-18.3,28.7-2.8-2.7Zm-86.8-32.3,5.9-31.6a5.1,5.1,0,0,1,10,1.9L527.6,270a36.7,36.7,0,0,0-10,3.3Zm-45.1,84.7V286.7a5.1,5.1,0,0,1,5.1-5.1,5,5,0,0,1,5.1,5.1v62.2Zm-24.9,23.4-16.9-90.4-8.9-47.4a5,5,0,0,1,4-5.9,5.2,5.2,0,0,1,6,4l8.8,47.4,15.8,84.1Zm-20.8,19.6L387,305a5.2,5.2,0,0,1,2.9-6.7,5.2,5.2,0,0,1,6.6,2.9L433.7,394Zm-17,16L350,325l-25.9-40.6a5.1,5.1,0,1,1,8.5-5.5l25.9,40.7,57.9,90.8Zm-16.9,15.9-76.5-80a5.1,5.1,0,1,1,7.4-7l76.5,80Zm-16.1,15.1-87.3-62.6-39.2-28.1a5.1,5.1,0,1,1,5.9-8.3l39.2,28.1,89,63.8ZM357.2,466,267,425.1a5.2,5.2,0,0,1-2.5-6.8,5,5,0,0,1,6.7-2.5l94.1,42.6Zm-20.6,19.4-82.5-20.2-46.8-11.5a5,5,0,0,1,2.4-9.8l46.8,11.4,88.9,21.8Zm-87.8,24.2a5.1,5.1,0,0,1,.4-10.2l69.2,3.1-10.3,9.7Zm-96.4-4.3a5.1,5.1,0,0,1,.5-10.1l57.4,2.5a5.1,5.1,0,0,1,4.9,5.3,5.2,5.2,0,0,1-5.3,4.9ZM471.5,190.2a5,5,0,0,1,5.1-5,5,5,0,0,1,5.1,5v57.5a5.1,5.1,0,0,1-5.1,5.1,5.1,5.1,0,0,1-5.1-5.1Z"/>
    <g>
      <path class="b" d="M508.4,342l-22.5,21.3L224.5,609H276v90.2h.1a21.2,21.2,0,0,0,21.3,21.3h0a21.3,21.3,0,0,0,21.3-21.3h0V640.9a32.2,32.2,0,0,1,2.1-11.5c4.3-10.7,14.5-17.6,26.6-20.9a68.9,68.9,0,0,1,18.2-2.4,76.9,76.9,0,0,1,18.2,2.4c16.2,4.4,29,14.9,28.9,31v34.8h0a22.5,22.5,0,0,0,5.8,15.3,18,18,0,0,0,13.2,6h0a18,18,0,0,0,13.2-6,22.5,22.5,0,0,0,5.8-15.3h0V637.2c0-15,10.6-24.8,24-29a50.8,50.8,0,0,1,29.9-.1c12.9,4.2,22.9,14,22.9,30v87h.1a24,24,0,0,0,5.4,15.4,16,16,0,0,0,11.9,5.9h0c4.6,0,8.8-2.3,12-5.9a24,24,0,0,0,5.4-15.4h.1V639.8c0-28.2,12.1-31.9,34-31.8h9.1c4,.2,8.3.3,12.8.2H664c0-1.8-.1-4.2-.2-7.6h-.2c0-.6.1-1.2.1-1.7-.3-6.1-.8-14.7-1.8-26.9-1.5-18-8.8-41-19.4-65.1a486,486,0,0,0-44.2-78.7c-15.4-22.1-34.6-41.4-51.2-55.9a378.9,378.9,0,0,0-35.2-27.6,29.7,29.7,0,0,1-3.5-2.7M677.1,576.6l1-.8a52.6,52.6,0,0,1,30.1-9.5c11,0,22,2.4,30.3,6.5-.6-5.3-1.3-10.9-2.3-16.7-3.8-22.7-11.3-50-26.4-85.6-13.8-32.7-38.7-69.4-65.2-101.4-30.6-37-63.2-67.5-83.5-78.5a68.1,68.1,0,0,0-18-7c-8.2-1.8-14.7-.9-19.6,1.6A24.5,24.5,0,0,0,513,295.6a32.5,32.5,0,0,0-2.1,24.6,25.6,25.6,0,0,0,9.3,12.3,376.1,376.1,0,0,1,36.6,28.7c17.3,15.1,37.5,35.3,53.6,58.6A502.2,502.2,0,0,1,656.1,501c11.1,25.4,18.9,50.1,20.5,69.8C676.8,572.8,676.9,574.8,677.1,576.6Zm62.8,17.6c-.3-2.8-3.1-5.5-7.3-7.8-6.3-3.3-15.2-5.3-24.4-5.3a37.3,37.3,0,0,0-21.4,6.7c-5.1,3.7-8.3,8.4-8.3,12.8h-.2c.4,14.9-.8,17.7-.8,17.7l-1.8,4.8h-57l-13.2-.2h-8.7c-12.4-.1-19.2,1.9-19.2,17V650l73.8.5,51,.3c11,0,21.3-2.8,28.3-9.8s9.4-14.8,9.4-28C740,607,740,600.8,739.9,594.2ZM507.9,366a4.4,4.4,0,0,0-4.4,4.4,4.4,4.4,0,0,0,1.3,3.2,4.6,4.6,0,0,0,6.2,0,4.4,4.4,0,0,0,1.3-3.2,4.4,4.4,0,0,0-4.4-4.4Zm-8.3-3.9a11.5,11.5,0,0,1,8.3-3.5,11.8,11.8,0,0,1,11.8,11.8,11.9,11.9,0,0,1-3.4,8.4,12.1,12.1,0,0,1-8.4,3.5,11.9,11.9,0,0,1-8.3-3.5,11.7,11.7,0,0,1,0-16.7Zm66.7,57.7a4.4,4.4,0,0,0,0,8.8,4.2,4.2,0,0,0,3.1-1.3,4.3,4.3,0,0,0,0-6.2A4.2,4.2,0,0,0,566.3,419.8Zm-8.3-3.9a11.7,11.7,0,0,1,16.7,0,11.9,11.9,0,0,1,3.5,8.3,12.1,12.1,0,0,1-3.5,8.4,12,12,0,0,1-16.7,0,11.7,11.7,0,0,1-3.5-8.4A11.5,11.5,0,0,1,558,415.9ZM500.3,565.1a4.4,4.4,0,0,0-4.4,4.4,4.4,4.4,0,0,0,1.3,3.2,4.6,4.6,0,0,0,6.2,0,4.4,4.4,0,0,0,1.3-3.2,4.4,4.4,0,0,0-4.4-4.4Zm-8.4-3.9a11.7,11.7,0,0,1,8.4-3.5,11.8,11.8,0,0,1,8.3,20.2,11.9,11.9,0,0,1-8.3,3.5,12.1,12.1,0,0,1-8.4-3.5,12,12,0,0,1,0-16.7ZM513,505a4.3,4.3,0,0,0-3.1,1.2,4.4,4.4,0,0,0-1.3,3.2,4.4,4.4,0,0,0,4.4,4.4,4.4,4.4,0,0,0,3.2-1.3,4.3,4.3,0,0,0,1.2-3.1A4.1,4.1,0,0,0,513,505Zm-8.3-4a11.8,11.8,0,1,1,16.7,16.7A11.8,11.8,0,1,1,504.7,501ZM311.6,578.6a4.4,4.4,0,1,0,3.1,1.3A4.4,4.4,0,0,0,311.6,578.6Zm-8.3-4a11.6,11.6,0,0,1,8.3-3.4A11.6,11.6,0,0,1,323.4,583a11.8,11.8,0,0,1-11.8,11.8,11.3,11.3,0,0,1-8.3-3.5,11.5,11.5,0,0,1-3.5-8.3A11.7,11.7,0,0,1,303.3,574.6ZM335,542a4.3,4.3,0,0,0-3.1,1.2,4.4,4.4,0,0,0-1.3,3.2,4.4,4.4,0,0,0,8.8,0,4.4,4.4,0,0,0-1.3-3.2A4.3,4.3,0,0,0,335,542Zm-8.3-4a11.9,11.9,0,0,1,8.3-3.5,12.1,12.1,0,0,1,8.4,3.5,12,12,0,0,1,0,16.7,11.7,11.7,0,0,1-8.4,3.5,11.8,11.8,0,0,1-8.3-20.2Zm264-26.9a35.5,35.5,0,1,0,35.4,35.5,35.5,35.5,0,0,0-35.4-35.5Zm-35.6-.1a50.5,50.5,0,1,1-14.7,35.6A50.2,50.2,0,0,1,555.1,511ZM497,400.3a35.5,35.5,0,1,0,25.1,10.4A35.2,35.2,0,0,0,497,400.3Zm-35.5-.1a50.2,50.2,0,1,1-14.8,35.6A49.9,49.9,0,0,1,461.5,400.2Zm-47.2,95.2a35.4,35.4,0,0,0-25.1,60.5,35.5,35.5,0,0,0,60.6-25,35.5,35.5,0,0,0-35.5-35.5Zm-35.6-.1A50.3,50.3,0,1,1,364,530.9,50.2,50.2,0,0,1,378.7,495.3ZM213.2,623.9v22.8l48.1.4V623.7Zm120.5,23.9,29.9.5,34.5.6v-9.4c0-.5-.1-1-.1-1.5-.9-7.4-8.5-12.6-18-15.2a57.3,57.3,0,0,0-14.3-1.9,56,56,0,0,0-14.3,1.8c-5.9,1.7-11.1,4.5-14.4,8.5a15.4,15.4,0,0,0-3.4,9.7Zm132.1,1.3,29.3.2H513V638.1c0-8.3-5.5-13.6-12.7-15.9a32.1,32.1,0,0,0-10.3-1.5,34.5,34.5,0,0,0-10.6,1.6c-7.6,2.4-13.6,7.5-13.6,14.9v11.9Z"/>
      <text class="c" transform="translate(56.7 907.3)">PIZZERIA</text>
      <text class="d" transform="matrix(-0.04, -1, 1, -0.04, 125.74, 576.91)">C</text>
      <text class="d" transform="translate(120.7 482.5) rotate(-76.8)">O</text>
      <text class="d" transform="matrix(0.48, -0.88, 0.88, 0.48, 143.53, 385.13)">N</text>
      <text class="d" transform="translate(186.9 306.5) rotate(-48.5)">T</text>
      <text class="d" transform="translate(233.6 252.8) rotate(-36.8)">R</text>
      <text class="d" transform="translate(289.9 207.7) rotate(-23.1)">O</text>
      <text class="d" transform="matrix(0.99, -0.17, 0.17, 0.99, 382.86, 169.79)">L</text>
      <text class="d" transform="translate(447.6 159.7) rotate(-2)"> </text>
      <text class="d" transform="translate(472.4 157) rotate(5.3)">T</text>
      <text class="d" transform="translate(543.1 162) rotate(18.2)">H</text>
      <text class="d" transform="translate(626.9 189.7) rotate(31.7)">E</text>
      <text class="d" transform="matrix(0.76, 0.65, -0.65, 0.76, 693.03, 232.46)"> </text>
      <text class="d" transform="matrix(0.67, 0.75, -0.75, 0.67, 716.82, 250.82)">S</text>
      <text class="d" transform="matrix(0.51, 0.86, -0.86, 0.51, 761.15, 299.4)">P</text>
      <text class="d" transform="translate(797 361.7) rotate(68.2)">I</text>
      <text class="d" transform="translate(813.9 395.3) rotate(79)">C</text>
      <text class="d" transform="translate(831.5 488.5) rotate(92.8)">E</text>
    </g>
  </g>
</svg>